# xmcd CD database file
#
# Track frame offsets:
#	150
#	22535
#	41617
#	48972
#	62482
#	68871
#	81251
#	101401
#	120090
#	132450
#	148056
#	170820
#	179435
#	182737
#
# Disc length: 2458 seconds
#
# Revision: 0
# Processed by: cddbd v1.5.2PL0 Copyright (c) Steve Scherf et al.
# Submitted via: CDex 1.51
#
DISCID=b909980e
DTITLE=Magic Malik - Orchestra Saoule Cd2
DYEAR=2008
DGENRE=Jazz
TTITLE0=XP 9-Giant steps
TTITLE1=XP 1
TTITLE2=XP 2-Extrait 1ere version
TTITLE3=XP 2
TTITLE4=XP 3-Duo
TTITLE5=XP 3
TTITLE6=XP 4
TTITLE7=XP 5-Solo
TTITLE8=XP 6-House
TTITLE9=XP 6
TTITLE10=XP 7
TTITLE11=XP 4-Solo
TTITLE12=XP 4-Solo 2
TTITLE13=XP 4-Solo 3
EXTD=YEAR: 2008
EXTT0=
EXTT1=
EXTT2=
EXTT3=
EXTT4=
EXTT5=
EXTT6=
EXTT7=
EXTT8=
EXTT9=
EXTT10=
EXTT11=
EXTT12=
EXTT13=
PLAYORDER=
